<?xml version="1.0" encoding="UTF-8"?>
<svg version="1.1" xmlns="http://www.w3.org/2000/svg" width="613" height="736">
<path d="M0 0 C0.74344666 0.00060425 1.48689331 0.0012085 2.25286865 0.00183105 C86.62756352 0.18689793 162.92161695 35.16695943 222.5 93.9375 C226.38514954 97.88576569 230.0639569 101.94556912 233.625 106.1875 C234.05731934 106.69007324 234.48963867 107.19264648 234.93505859 107.71044922 C283.48996694 164.30068043 307.81374766 236.52419977 307.875 310.625 C307.87601212 311.74793457 307.87601212 311.74793457 307.87704468 312.89355469 C307.84119038 338.33871547 305.03607721 363.30351188 299.625 388.1875 C299.30257324 389.67757568 299.30257324 389.67757568 298.97363281 391.19775391 C293.30204469 416.77924443 284.63919855 441.4389468 273.625 465.1875 C272.815079 466.97004065 272.00518305 468.75259268 271.1953125 470.53515625 C263.22341743 487.86696019 253.87294553 504.47736626 243.17578125 520.27734375 C241.45997305 522.82728701 239.97710289 525.37945015 238.60546875 528.12890625 C236.69880992 531.75170056 234.83551699 534.54774159 231.625 537.1875 C225.44313578 539.08866856 218.90483094 538.12941218 212.625 537.1875 C211.87557129 537.07631836 211.12614258 536.96513672 210.35400391 536.85058594 C189.96203801 533.49535102 170.1393813 523.59528191 157.7578125 506.62890625 C148.13542362 492.07142951 144.41296591 478.17462105 144.1875 460.875 C144.16518311 459.88032715 144.14286621 458.8856543 144.11987305 457.86083984 C144.16360081 443.16122115 148.4871777 430.24702823 155.0222168 417.26171875 C156.85182426 413.61366782 158.6117816 409.93234789 160.37109375 406.25 C160.73045013 405.49871826 161.08980652 404.74743652 161.46005249 403.97338867 C185.15104203 354.01858997 200.82183997 299.84549376 182.3125 245.625 C179.10959912 236.78135212 175.10326054 228.44616397 170.625 220.1875 C170.26647949 219.51203125 169.90795898 218.8365625 169.53857422 218.140625 C164.61167653 208.87466099 159.21724258 200.39067187 152.625 192.1875 C151.87089844 191.24132812 151.11679687 190.29515625 150.33984375 189.3203125 C140.83507223 177.5461353 140.83507223 177.5461353 129.91796875 167.1171875 C128.20516803 165.67575043 126.52524711 164.19507802 124.86328125 162.6953125 C96.55926883 137.40013768 57.79369756 123.20321548 20.625 118.1875 C19.70589844 118.05601563 18.78679687 117.92453125 17.83984375 117.7890625 C-19.55232541 113.40392697 -57.50416572 122.50913661 -90.375 140.1875 C-91.05191895 140.54602051 -91.72883789 140.90454102 -92.42626953 141.27392578 C-101.69105903 146.20135672 -110.16954993 151.60018764 -118.375 158.1875 C-119.28636719 158.90679687 -120.19773438 159.62609375 -121.13671875 160.3671875 C-136.23396799 172.47083097 -150.48622951 185.8964147 -162.375 201.1875 C-163.10372314 202.10958252 -163.10372314 202.10958252 -163.84716797 203.05029297 C-210.47491733 262.07766543 -234.38440655 337.57876188 -226.0625 412.8046875 C-219.59121709 465.55719908 -200.04634805 515.07927863 -168.640625 557.94921875 C-166.375 561.1875 -166.375 561.1875 -165.375 564.1875 C-169.62600162 562.7126627 -173.07618859 560.50117373 -176.6875 557.875 C-177.59121338 557.22229126 -177.59121338 557.22229126 -178.51318359 556.55639648 C-200.07646633 540.79436093 -221.09191731 522.43973034 -237.375 501.1875 C-238.40045416 499.87844581 -239.42654538 498.56989053 -240.453125 497.26171875 C-279.4167679 447.32022408 -305.08440232 384.41305517 -305.61328125 320.484375 C-305.62804001 319.00216209 -305.62804001 319.00216209 -305.64309692 317.49000549 C-306.28453389 236.28861597 -281.46664558 157.49085397 -224.234375 97.9609375 C-223.10061201 96.84196273 -221.96075858 95.72909479 -220.8125 94.625 C-219.13311554 92.99492138 -219.13311554 92.99492138 -216.9375 90.1875 C-214.35915342 87.1689479 -211.66075686 84.71138988 -208.64453125 82.1484375 C-206.1776719 80.01700308 -203.81548199 77.79253471 -201.4375 75.5625 C-185.39474058 60.96203568 -167.12635861 48.99421723 -148.375 38.1875 C-147.26511719 37.54296875 -146.15523437 36.8984375 -145.01171875 36.234375 C-101.07756796 11.75464432 -50.09203455 -0.0757631 0 0 Z " fill="#F48242" transform="translate(305.375,-0.1875)"/>
<path d="M0 0 C0.66 0.33 1.32 0.66 2 1 C1.67427002 1.49064941 1.34854004 1.98129883 1.01293945 2.48681641 C-28.03860492 46.380847 -50.48787439 92.38231077 -68 142 C-123.44 142 -178.88 142 -236 142 C-238.23187633 133.07249467 -238.23187633 133.07249467 -239.11328125 128.75 C-241.49560058 117.2816718 -244.03006582 106.03052004 -248 95 C-248.39928711 93.8867334 -248.39928711 93.8867334 -248.80664062 92.75097656 C-256.02519783 72.99363885 -265.58633411 54.01279471 -278 37 C-278.40959961 36.43635742 -278.81919922 35.87271484 -279.24121094 35.29199219 C-285.01646771 27.41582233 -291.35545338 20.15738075 -298 13 C-299.31932575 11.52691825 -300.63257815 10.0483564 -301.9375 8.5625 C-302.46214844 7.96566406 -302.98679687 7.36882813 -303.52734375 6.75390625 C-305.09438122 4.88759372 -306.55537338 2.96210482 -308 1 C-304.45145648 2.49118571 -302.41091722 4.50253023 -299.8125 7.3125 C-283.61973449 23.76567548 -262.90827911 36.45340671 -242 46 C-240.93458984 46.4942749 -240.93458984 46.4942749 -239.84765625 46.99853516 C-201.25878444 64.72466234 -154.81147538 71.35212462 -113 62 C-112.09507812 61.80132324 -111.19015625 61.60264648 -110.2578125 61.39794922 C-68.0838968 51.86167255 -30.29142905 30.81190034 0 0 Z " fill="#F48243" transform="translate(477,594)"/>
</svg>
